<?xml version="1.0" encoding="UTF-8"?>
<!DOCTYPE svg PUBLIC "-//W3C//DTD SVG 1.1//EN" "http://www.w3.org/Graphics/SVG/1.1/DTD/svg11.dtd">
<!-- Creator: CorelDRAW 2020 (64 Bit) -->
<svg xmlns="http://www.w3.org/2000/svg" xml:space="preserve" width="124.626mm" height="258.726mm" version="1.1" style="shape-rendering:geometricPrecision; text-rendering:geometricPrecision; image-rendering:optimizeQuality; fill-rule:evenodd; clip-rule:evenodd"
viewBox="0 0 1086.15 2254.86"
 xmlns:xlink="http://www.w3.org/1999/xlink"
 xmlns:xodm="http://www.corel.com/coreldraw/odm/2003">
 <defs>
  <style type="text/css">
   <![CDATA[
    .fil1 {fill:none}
    .fil0 {fill:#FFAF20}
   ]]>
  </style>
   <clipPath id="id0">
    <path d="M-0 0l1086.15 0 0 2254.86 -1086.15 0 0 -2254.86z"/>
   </clipPath>
    <clipPath id="id1">
     <path d="M-0 0l1086.15 0 0 1703.38 -1086.15 0 0 -1703.38z"/>
    </clipPath>
    <clipPath id="id2">
     <path d="M-0 0l1086.15 0 0 2254.86 -1086.15 0 0 -2254.86z"/>
    </clipPath>
    <clipPath id="id3">
     <path d="M322.91 0l763.24 0 0 2254.86 -763.24 0 0 -2254.86z"/>
    </clipPath>
    <clipPath id="id4">
     <path d="M322.91 0l0 2254.86 763.24 0 0 -2254.86 -763.24 0z"/>
    </clipPath>
    <clipPath id="id5">
     <path d="M322.91 0l763.24 0 0 2254.86 -763.24 0 0 -2254.86z"/>
    </clipPath>
    <clipPath id="id6">
     <path d="M-0 0l1086.15 0 0 2254.86 -1086.15 0 0 -2254.86z"/>
    </clipPath>
 </defs>
 <g id="Camada_x0020_1">
  <metadata id="CorelCorpID_0Corel-Layer"/>
  <polygon class="fil0" points="-0,0 1086.15,0 1086.15,2254.86 -0,2254.86 "/>
  <g style="clip-path:url(#id0)">
   <g id="_1514594160736">
   </g>
   <g style="clip-path:url(#id1)">
    <image x="-1119.06" y="-983.68" width="2607.98" height="2687.06" xlink:href="bgf_Images\bgf_ImgID1.png"/>
   </g>
   <g style="clip-path:url(#id2)">
   </g>
   <g style="clip-path:url(#id3)">
   </g>
   <g style="clip-path:url(#id4)">
    <image x="322.91" y="-330.39" width="2264.01" height="3537.89" xlink:href="bgf_Images\bgf_ImgID2.png"/>
   </g>
   <g style="clip-path:url(#id5)">
   </g>
   <g style="clip-path:url(#id6)">
   </g>
  </g>
  <polygon class="fil1" points="-0,0 1086.15,0 1086.15,2254.86 -0,2254.86 "/>
 </g>
</svg>
