<?xml version="1.0" encoding="UTF-8"?>
<!DOCTYPE svg PUBLIC "-//W3C//DTD SVG 1.1//EN" "http://www.w3.org/Graphics/SVG/1.1/DTD/svg11.dtd">
<!-- Creator: CorelDRAW 2020 (64 Bit) -->
<svg xmlns="http://www.w3.org/2000/svg" xml:space="preserve" width="131.329mm" height="147.964mm" version="1.1" style="shape-rendering:geometricPrecision; text-rendering:geometricPrecision; image-rendering:optimizeQuality; fill-rule:evenodd; clip-rule:evenodd"
viewBox="0 0 1382.89 1558.06"
 xmlns:xlink="http://www.w3.org/1999/xlink"
 xmlns:xodm="http://www.corel.com/coreldraw/odm/2003">
 <defs>
  <style type="text/css">
   <![CDATA[
    .fil0 {fill:none}
   ]]>
  </style>
     <clipPath id="id0">
      <rect y="1010.93" width="1382.89" height="547.14"/>
     </clipPath>
    <clipPath id="id1">
     <path d="M102.92 0l1223.99 0 0 1531.07 -1223.99 0 0 -1531.07z"/>
    </clipPath>
     <clipPath id="id2">
      <path d="M1175.85 0c60.45,74.25 111.69,163.09 151.06,262.6l0 955.94c-48.63,122.94 -115.44,229.53 -195.27,312.53l-820.39 0c-87.24,-90.69 -158.92,-209.54 -208.33,-347.08l0 -886.84c40.79,-113.57 96.75,-214.4 164.12,-297.15l908.82 0z"/>
     </clipPath>
      <clipPath id="id3">
       <path d="M1175.85 0c60.45,74.25 111.69,163.09 151.06,262.6l0 955.94c-48.63,122.94 -115.44,229.53 -195.27,312.53l-820.39 0c-87.24,-90.69 -158.92,-209.54 -208.33,-347.08l0 -886.84c40.79,-113.57 96.75,-214.4 164.12,-297.15l908.82 0z"/>
      </clipPath>
      <clipPath id="id4">
       <path d="M1175.85 0c60.45,74.25 111.69,163.09 151.06,262.6l0 955.94c-48.63,122.94 -115.44,229.53 -195.27,312.53l-820.39 0c-87.24,-90.69 -158.92,-209.54 -208.33,-347.08l0 -886.84c40.79,-113.57 96.75,-214.4 164.12,-297.15l908.82 0z"/>
      </clipPath>
     <clipPath id="id5">
      <path d="M102.92 0l1223.99 0 0 1531.07 -1223.99 0 0 -1531.07z"/>
     </clipPath>
 </defs>
 <g id="Camada_x0020_1">
  <metadata id="CorelCorpID_0Corel-Layer"/>
  <g id="_1514105942016">
   <g>
    <g style="clip-path:url(#id0)">
     <image x="-0" y="1010.93" width="1382.89" height="547.14" xlink:href="mulhersentada_Images\mulhersentada_ImgID1.png"/>
    </g>
   </g>
   <g>
   </g>
   <g style="clip-path:url(#id1)">
    <g id="_1514105943168">
     <g>
     </g>
    </g>
    <g style="clip-path:url(#id2)">
     <g id="_1514105943840">
     </g>
     <g style="clip-path:url(#id3)">
      <image x="-707.21" y="-361.91" width="2979.11" height="1986.08" xlink:href="mulhersentada_Images\mulhersentada_ImgID2.png"/>
     </g>
     <g style="clip-path:url(#id4)">
     </g>
    </g>
    <g style="clip-path:url(#id5)">
     <path class="fil0" d="M721.44 -239.94c382.92,-0 693.34,438.99 693.34,980.51 0,541.52 -310.42,980.51 -693.34,980.51 -382.92,0 -693.34,-438.99 -693.34,-980.51 0,-541.52 310.42,-980.51 693.34,-980.51z"/>
    </g>
   </g>
   <polygon class="fil0" points="102.92,0 1326.91,0 1326.91,1531.07 102.92,1531.07 "/>
  </g>
 </g>
</svg>
